<svg height="512" viewBox="0 0 32 32" width="512" xmlns="http://www.w3.org/2000/svg">
    <g id="Layer_3" data-name="Layer 3">
        <path d="m16 4a6.005 6.005 0 0 0 -4.479 2.025 5.9 5.9 0 0 0 -6.4 4.909 4.994 4.994 0 0 0 -2.121 4.066c0 2.277 1.138 3.33 3.038 4.6a3.634 3.634 0 0 0 .972.259 1 1 0 0 0 .6-.2 1.319 1.319 0 0 0 .409-.909 2.735 2.735 0 0 1 1.52-2.35 1 1 0 0 0 .5-.777 3.946 3.946 0 0 1 4.714-3.545 1 1 0 0 0 1-.4 4.071 4.071 0 0 1 4.793-1.365 1 1 0 0 0 1.381-1.044 5.994 5.994 0 0 0 -5.927-5.269z" fill="#cccccc" class="lt-gray"/>
        <path d="m13 15a3.983 3.983 0 0 1 2.047-3.471 4.955 4.955 0 0 1 .14-.734c-.083.1-.168.2-.243.3a4.95 4.95 0 0 0 -5.9 4.434 3.988 3.988 0 0 0 1.956 7.471h10a4 4 0 0 0 4-4h-8a4 4 0 0 1 -4-4z" fill="#cccccc" class="lt-gray"/>
        <path d="m21 24h-10a4.986 4.986 0 0 1 -2.88-9.066 5.9 5.9 0 0 1 6.4-4.909 5.993 5.993 0 0 1 10.228 5.691 4.982 4.982 0 0 1 -3.748 8.284zm-7-12a3.971 3.971 0 0 0 -3.957 3.623 1 1 0 0 1 -.5.777 2.987 2.987 0 0 0 1.457 5.6h10a2.985 2.985 0 0 0 1.94-5.266 1 1 0 0 1 -.267-1.154 3.992 3.992 0 0 0 -6.916-3.9 1 1 0 0 1 -1 .4 3.948 3.948 0 0 0 -.757-.08z" fill="#2F303B" class="dk-gray"/>
    </g>
</svg>