<svg height="512" viewBox="0 0 32 32" width="512" xmlns="http://www.w3.org/2000/svg">
    <g id="Layer_9" data-name="Layer 9">
        <path d="m13 15a3.983 3.983 0 0 1 2.047-3.471 4.955 4.955 0 0 1 .14-.734c-.083.1-.168.2-.243.3a4.95 4.95 0 0 0 -5.9 4.434 3.988 3.988 0 0 0 1.956 7.471h10a4 4 0 0 0 4-4h-8a4 4 0 0 1 -4-4z" fill="#cccccc" class="lt-gray"/>
        <path d="m21 24a1 1 0 0 1 0-2 2.984 2.984 0 0 0 1.939-5.266 1 1 0 0 1 -.266-1.154 3.992 3.992 0 0 0 -6.916-3.9 1 1 0 0 1 -1 .4 3.946 3.946 0 0 0 -4.714 3.545 1 1 0 0 1 -.5.777 2.987 2.987 0 0 0 1.457 5.598 1 1 0 0 1 0 2 4.986 4.986 0 0 1 -2.88-9.066 5.956 5.956 0 0 1 5.88-4.934c.171 0 .345.008.521.025a5.989 5.989 0 0 1 10.479 3.975 5.915 5.915 0 0 1 -.252 1.716 4.982 4.982 0 0 1 -3.748 8.284z" fill="#2F303B" class="dk-gray"/>
        <g fill="#191d32" class="blue">
            <path d="m11 29a1 1 0 0 1 -1-1v-2a1 1 0 0 1 2 0v2a1 1 0 0 1 -1 1z"/>
            <path d="m14 28a1 1 0 0 1 -1-1v-3a1 1 0 0 1 2 0v3a1 1 0 0 1 -1 1z"/>
            <path d="m17 29a1 1 0 0 1 -1-1v-4a1 1 0 0 1 2 0v4a1 1 0 0 1 -1 1z"/>
            <path d="m20 29a1 1 0 0 1 -1-1v-2a1 1 0 0 1 2 0v2a1 1 0 0 1 -1 1z"/>
        </g>
    </g>
</svg>