<svg height="512" viewBox="0 0 32 32" width="512" xmlns="http://www.w3.org/2000/svg">
    <g id="Layer_27" data-name="Layer 27">
        <path d="m13 15a3.983 3.983 0 0 1 2.047-3.471 4.955 4.955 0 0 1 .14-.734c-.083.1-.168.2-.243.3a4.95 4.95 0 0 0 -5.9 4.434 3.988 3.988 0 0 0 1.956 7.471h10a4 4 0 0 0 4-4h-8a4 4 0 0 1 -4-4z" fill="#cccccc" class="lt-gray"/>
        <path d="m21 24a1 1 0 0 1 0-2 2.985 2.985 0 0 0 1.94-5.266 1 1 0 0 1 -.267-1.155 3.963 3.963 0 0 0 .327-1.579 3.991 3.991 0 0 0 -7.243-2.322 1 1 0 0 1 -1 .4 3.951 3.951 0 0 0 -4.714 3.547 1 1 0 0 1 -.5.776 2.987 2.987 0 0 0 1.457 5.599 1 1 0 0 1 0 2 4.985 4.985 0 0 1 -2.88-9.065 5.907 5.907 0 0 1 6.4-4.911 5.994 5.994 0 0 1 10.228 5.692 4.982 4.982 0 0 1 -3.748 8.284z" fill="#2F303B" class="dk-gray"/>
        <g fill="#555555" class="lt-gray">
            <path d="m13.293 24.707a1 1 0 0 1 -.707-1.707l1.414-1.414a1 1 0 1 1 1.414 1.414l-1.414 1.414a1 1 0 0 1 -.707.293z"/>
            <path d="m14.707 24.707a1 1 0 0 1 -.707-.293l-1.414-1.414a1 1 0 1 1 1.414-1.414l1.414 1.414a1 1 0 0 1 -.707 1.707z"/>
            <path d="m17.293 24.707a1 1 0 0 1 -.707-1.707l1.414-1.414a1 1 0 0 1 1.414 1.414l-1.414 1.414a1 1 0 0 1 -.707.293z"/>
            <path d="m18.707 24.707a1 1 0 0 1 -.707-.293l-1.414-1.414a1 1 0 0 1 1.414-1.414l1.414 1.414a1 1 0 0 1 -.707 1.707z"/>
            <path d="m15.293 28.707a1 1 0 0 1 -.707-1.707l1.414-1.414a1 1 0 0 1 1.414 1.414l-1.414 1.414a1 1 0 0 1 -.707.293z"/>
            <path d="m16.707 28.707a1 1 0 0 1 -.707-.293l-1.414-1.414a1 1 0 1 1 1.414-1.414l1.414 1.414a1 1 0 0 1 -.707 1.707z"/>
            <path d="m11.293 28.707a1 1 0 0 1 -.707-1.707l1.414-1.414a1 1 0 1 1 1.414 1.414l-1.414 1.414a1 1 0 0 1 -.707.293z"/>
            <path d="m12.707 28.707a1 1 0 0 1 -.707-.293l-1.414-1.414a1 1 0 1 1 1.414-1.414l1.414 1.414a1 1 0 0 1 -.707 1.707z"/>
            <path d="m19.293 28.707a1 1 0 0 1 -.707-1.707l1.414-1.414a1 1 0 0 1 1.414 1.414l-1.414 1.414a1 1 0 0 1 -.707.293z"/>
            <path d="m20.707 28.707a1 1 0 0 1 -.707-.293l-1.414-1.414a1 1 0 0 1 1.414-1.414l1.414 1.414a1 1 0 0 1 -.707 1.707z"/>
        </g>
    </g>
</svg>