<svg height="512" viewBox="0 0 32 32" width="512" xmlns="http://www.w3.org/2000/svg">
    <g id="Layer_4" data-name="Layer 4">
        <path d="m20 19a6 6 0 0 1 -5.275-8.861 6 6 0 1 0 6.55 8.722 6.015 6.015 0 0 1 -1.275.139z" fill="#e1ce7a" class="yellow"/>
        <g fill="#2F303B" class="dk-gray">
            <path d="m16 23a7 7 0 1 1 7-7 7.008 7.008 0 0 1 -7 7zm0-12a5 5 0 1 0 5 5 5.006 5.006 0 0 0 -5-5z"/>
            <path d="m16 8a1 1 0 0 1 -1-1v-1a1 1 0 0 1 2 0v1a1 1 0 0 1 -1 1z"/>
            <path d="m9.354 10.354a1 1 0 0 1 -.708-.293l-.707-.707a1 1 0 0 1 1.415-1.415l.707.707a1 1 0 0 1 -.707 1.708z"/>
            <path d="m22.646 10.354a1 1 0 0 1 -.707-1.708l.707-.707a1 1 0 0 1 1.415 1.415l-.707.707a1 1 0 0 1 -.708.293z"/>
            <path d="m23.354 24.354a1 1 0 0 1 -.708-.293l-.707-.707a1 1 0 0 1 1.415-1.415l.707.707a1 1 0 0 1 -.707 1.708z"/>
            <path d="m8.646 24.354a1 1 0 0 1 -.707-1.708l.707-.707a1 1 0 0 1 1.415 1.415l-.707.707a1 1 0 0 1 -.708.293z"/>
            <path d="m16 27a1 1 0 0 1 -1-1v-1a1 1 0 0 1 2 0v1a1 1 0 0 1 -1 1z"/>
            <path d="m26 17h-1a1 1 0 0 1 0-2h1a1 1 0 0 1 0 2z"/><path d="m7 17h-1a1 1 0 0 1 0-2h1a1 1 0 0 1 0 2z"/>
        </g>
    </g>
</svg>