<svg height="512" viewBox="0 0 32 32" width="512" xmlns="http://www.w3.org/2000/svg">
    <g id="Layer_10" data-name="Layer 10">
        <path d="m13 15a3.983 3.983 0 0 1 2.047-3.471 4.955 4.955 0 0 1 .14-.734c-.083.1-.168.2-.243.3a4.95 4.95 0 0 0 -5.9 4.434 3.988 3.988 0 0 0 1.956 7.471h10a4 4 0 0 0 4-4h-8a4 4 0 0 1 -4-4z" fill="#cccccc" class="lt-gray"/>
        <path d="m21 24a1 1 0 0 1 0-2 2.984 2.984 0 0 0 1.939-5.266 1 1 0 0 1 -.266-1.154 3.992 3.992 0 0 0 -6.916-3.9 1 1 0 0 1 -1 .4 3.946 3.946 0 0 0 -4.714 3.545 1 1 0 0 1 -.5.777 2.987 2.987 0 0 0 1.457 5.598 1 1 0 0 1 0 2 4.986 4.986 0 0 1 -2.88-9.066 5.9 5.9 0 0 1 6.4-4.909 5.989 5.989 0 0 1 10.48 3.975 5.915 5.915 0 0 1 -.252 1.716 4.982 4.982 0 0 1 -3.748 8.284z" fill="#2F303B" class="dk-gray"/>
        <g fill="#e1ce7a" class="yellow">
            <path d="m13 29a1 1 0 0 1 -.707-1.707l1.293-1.293-1.293-1.293a1 1 0 0 1 0-1.414l2-2a1 1 0 0 1 1.414 1.414l-1.293 1.293 1.293 1.293a1 1 0 0 1 0 1.414l-2 2a1 1 0 0 1 -.707.293z"/>
            <path d="m17 26a1 1 0 0 1 -.707-1.707l.293-.293-.293-.293a1 1 0 0 1 0-1.414l1-1a1 1 0 0 1 1.414 1.414l-.293.293.293.293a1 1 0 0 1 0 1.414l-1 1a1 1 0 0 1 -.707.293z"/>
        </g>
    </g>
</svg>